<svg width="48" height="47" viewBox="0 0 48 47" fill="none" xmlns="http://www.w3.org/2000/svg">
<g clip-path="url(#clip0_1_18)">
<path d="M31.3 23.0495C31.3 24.8794 30.5572 26.6345 29.2351 27.9285C27.913 29.2225 26.1198 29.9495 24.25 29.9495C22.3802 29.9495 20.587 29.2225 19.2649 27.9285C17.9428 26.6345 17.2 24.8794 17.2 23.0495C17.2 22.6562 17.2423 22.2721 17.3152 21.8995H14.85V31.0926C14.85 31.732 15.3788 32.2495 16.0321 32.2495H32.4703C32.7834 32.2488 33.0834 32.1267 33.3046 31.9098C33.5258 31.6929 33.65 31.399 33.65 31.0926V21.8995H31.1849C31.2577 22.2721 31.3 22.6562 31.3 23.0495ZM24.25 27.6495C24.8674 27.6493 25.4787 27.5301 26.049 27.2988C26.6193 27.0674 27.1375 26.7284 27.5739 26.301C28.0103 25.8736 28.3565 25.3663 28.5926 24.808C28.8287 24.2497 28.9502 23.6514 28.95 23.0472C28.9498 22.4429 28.8281 21.8446 28.5917 21.2865C28.3553 20.7283 28.0089 20.2211 27.5722 19.794C27.1356 19.3668 26.6172 19.028 26.0468 18.797C25.4764 18.5659 24.865 18.447 24.2477 18.4472C23.0008 18.4475 21.8052 18.9325 20.9238 19.7956C20.0423 20.6587 19.5473 21.8292 19.5477 23.0495C19.548 24.2698 20.0436 25.44 20.9254 26.3026C21.8073 27.1653 23.0032 27.6498 24.25 27.6495ZM29.89 18.2195H32.7077C32.8948 18.2195 33.0744 18.1468 33.207 18.0175C33.3396 17.8882 33.4144 17.7127 33.415 17.5295V14.7718C33.415 14.5881 33.3405 14.4121 33.2078 14.2822C33.0752 14.1524 32.8953 14.0795 32.7077 14.0795H29.89C29.7024 14.0795 29.5225 14.1524 29.3898 14.2822C29.2572 14.4121 29.1827 14.5881 29.1827 14.7718V17.5295C29.185 17.909 29.5023 18.2195 29.89 18.2195ZM24.25 0.969452C18.2667 0.969452 12.5285 3.29573 8.29767 7.43653C4.06685 11.5773 1.69 17.1935 1.69 23.0495C1.69 28.9054 4.06685 34.5216 8.29767 38.6624C12.5285 42.8032 18.2667 45.1295 24.25 45.1295C27.2126 45.1295 30.1462 44.5583 32.8833 43.4487C35.6204 42.3391 38.1074 40.7127 40.2023 38.6624C42.2972 36.6121 43.959 34.178 45.0927 31.4991C46.2265 28.8202 46.81 25.949 46.81 23.0495C46.81 20.1499 46.2265 17.2787 45.0927 14.5998C43.959 11.9209 42.2972 9.48685 40.2023 7.43653C38.1074 5.38622 35.6204 3.75982 32.8833 2.65019C30.1462 1.54057 27.2126 0.969452 24.25 0.969452ZM36 31.9942C36 33.3995 34.825 34.5495 33.3892 34.5495H15.1109C13.675 34.5495 12.5 33.3995 12.5 31.9942V14.1048C12.5 12.6995 13.675 11.5495 15.1109 11.5495H33.3892C34.825 11.5495 36 12.6995 36 14.1048V31.9942Z" fill="black" fill-opacity="0.6"/>
</g>
<defs>
<clipPath id="clip0_1_18">
<rect width="47" height="46" fill="white" transform="translate(0.75 0.0494385)"/>
</clipPath>
</defs>
</svg>
