<svg width="47" height="47" viewBox="0 0 47 47" fill="none" xmlns="http://www.w3.org/2000/svg">
<g clip-path="url(#clip0_1_14)">
<path d="M23.6595 22.9322H23.5905C20.8512 22.9322 18.4385 22.2353 17.0102 23.5486C16.6221 23.8934 16.313 24.3178 16.1038 24.7929C15.8946 25.268 15.7904 25.7826 15.7981 26.3017C15.7981 30.5613 19.209 31.0857 23.5928 31.0857H23.6595C28.041 31.0857 31.4542 30.559 31.4542 26.3017C31.4542 25.2828 31.0954 24.3329 30.2421 23.5486C28.8115 22.2353 26.3988 22.9322 23.6595 22.9322ZM19.9289 28.7535C19.094 28.7535 18.4201 27.8151 18.4201 26.6605C18.4201 25.5059 19.094 24.5721 19.9289 24.5721C20.7638 24.5721 21.44 25.5059 21.44 26.6605C21.4423 27.8151 20.7661 28.7535 19.9289 28.7535ZM27.3188 28.7535C26.4839 28.7535 25.8077 27.8151 25.8077 26.6605C25.8077 25.5059 26.4839 24.5721 27.3188 24.5721C28.1514 24.5721 28.8276 25.5059 28.8276 26.6605C28.8299 27.8151 28.1537 28.7535 27.3188 28.7535ZM23.625 0.969452C11.4304 0.969452 1.545 10.8549 1.545 23.0495C1.545 35.2441 11.4304 45.1295 23.625 45.1295C35.8196 45.1295 45.705 35.2441 45.705 23.0495C45.705 10.8549 35.8196 0.969452 23.625 0.969452ZM25.6398 32.1092C25.2442 32.1092 24.4576 32.1092 23.625 32.1138C22.7924 32.1092 22.0058 32.1092 21.6102 32.1092C19.8622 32.1092 12.9346 31.9735 12.9346 23.6245C12.9346 21.7063 13.5924 20.301 14.6711 19.128C14.5009 18.7048 14.4917 16.2944 15.4071 13.9852C15.4071 13.9852 17.5139 14.2152 20.6994 16.4025C21.3641 16.2162 22.4957 16.1219 23.625 16.1219C24.7543 16.1219 25.8836 16.2162 26.5529 16.4002C29.7384 14.2129 31.8452 13.9829 31.8452 13.9829C32.7606 16.2921 32.7537 18.7048 32.5812 19.1257C33.6599 20.2987 34.3177 21.704 34.3177 23.6222C34.3154 31.9758 27.3878 32.1092 25.6398 32.1092Z" fill="black" fill-opacity="0.6"/>
</g>
<defs>
<clipPath id="clip0_1_14">
<rect width="46" height="46" fill="white" transform="translate(0.625 0.0494385)"/>
</clipPath>
</defs>
</svg>
